<svg width="669" height="363" fill="none" xmlns="http://www.w3.org/2000/svg"><path fill-rule="evenodd" clip-rule="evenodd" d="M367.055.351c0 .193.237.81.526 1.37.704 1.36.359 1.597-.734.505-1.03-1.03-2.455-1.163-3.224-.302-.288.322-.694 1.228-.903 2.013l-.381 1.428-3.088-.217c-2.426-.17-3.171-.118-3.473.246-.803.968-.639 1.44.564 1.622 1.847.28 1.731 1.27-.37 3.158-1.173 1.055-1.919 1.495-2.277 1.345-2.677-1.118-4.482-.941-5.322.522-.558.971-.569.974-3.074.789-2.347-.174-2.603-.126-3.853.732-1.455 1-6.41 2.355-12.789 3.5-3.152.565-5.683 1.3-8.468 2.46-.345.144-.659-.129-1.004-.873-.688-1.483-1.584-1.511-3.359-.106-1.409 1.114-1.578 1.162-3.399.972-1.641-.172-2.179-.073-3.734.688-2.535 1.24-2.992 2.537-2.041 5.791.184.628.053.762-.931.946-1.006.189-1.292.069-2.343-.982-1.41-1.41-2.382-1.513-3.875-.411-.888.655-1.636.823-4.5 1.01-3.175.206-7.161.727-8.241 1.075-.371.12-.355.299.083.967.534.816.53.823-.885 1.184-.782.2-1.61.427-1.84.505-.23.077-.418-.078-.418-.344 0-.266-.371-.726-.825-1.024-.699-.457-1.094-.482-2.594-.162-4.244.906-6.274 1.697-7.043 2.746l-.753 1.027-3.774-.23-3.775-.229-1.197 1.197c-1.069 1.068-1.184 1.352-1.079 2.667l.118 1.47-1.352-1.245c-2.326-2.143-6.99-2.89-7.63-1.22-.272.705-3.795.716-4.723.014-.826-.624-1.8-.622-3.306.007-1.173.49-1.204.482-1.98-.51l-.788-1.006-1.325 1.007c-.729.554-1.893 1.104-2.587 1.222-.695.119-1.348.353-1.452.52-.302.49.593 1.34 2.124 2.018l1.418.628-.898 1.409c-1.722 2.698-2.496 3.11-4.161 2.22-.606-.325-.637-.294-.315.308.524.979 2.006 2.05 2.548 1.841.262-.1.822.23 1.266.745l.796.925 1.397-.559c1.355-.541 5.073-.776 5.501-.347.266.265-.306 1.396-1.204 2.382-.827.907-2.136.969-3.572.167-1.024-.571-1.065-.568-1.654.146-.472.57-.57 1.123-.445 2.51.087.977.287 1.916.444 2.084.157.17 1.121.35 2.144.401 1.29.065 2.497.418 3.944 1.155a13.884 13.884 0 004.392 1.353c2.967.375 4.354 1.156 4.49 2.53.168 1.702-.479 2.03-3.671 1.866-1.535-.08-3.534-.356-4.442-.615-2.415-.69-3.441-.6-4.43.39l-.861.86-1.263-1.015-1.263-1.015-3.886 3.892c-2.137 2.14-3.886 4.157-3.886 4.481 0 .325.64 1.02 1.423 1.544.898.602 1.465 1.255 1.539 1.772.065.45.612 1.273 1.216 1.83.604.555 1.489 1.708 1.967 2.561l.869 1.552-1.582.393c-.87.216-2.788 1.041-4.26 1.832-1.473.792-3.51 1.68-4.526 1.974-2.004.58-3.201 1.486-3.701 2.802-.228.6-.48.777-.885.621-1.262-.484-3.356-.594-3.606-.19-.139.225.083 1.125.494 2.002l.747 1.593 2.708.226c4.193.35 5.381 1.226 3.865 2.852l-.74.794.98.784c.886.708 1.317.785 4.412.786l3.432.002v1.506c0 1.09.196 1.702.712 2.218.66.659.937.695 3.766.488l3.054-.223 1.866 1.937c1.027 1.066 2.109 2.33 2.405 2.811.518.843.504.898-.398 1.565-.732.541-1.283 1.68-2.532 5.233-1.331 3.786-1.708 4.541-2.266 4.541-.876 0-6.406 2.431-8.78 3.861l-1.864 1.121-2.25-.853c-3.123-1.184-5.13-1.779-6.015-1.783-.634-.003-.754-.185-.754-1.147 0-1.445-.287-2.203-.834-2.203-.644 0-2.848 2.585-2.848 3.341 0 .363-.245 1.274-.545 2.023-.449 1.121-.889 1.536-2.485 2.341-1.067.539-2.583 1.082-3.369 1.208l-1.43.228 1.091-.974c1.906-1.702.549-2.757-3.866-3.005-3.018-.169-7.654-1.719-8.92-2.981-2.284-2.279-2.865-4.3-1.398-4.857.46-.175.837-.535.837-.799 0-.682-1.768-2.082-3.246-2.569-.69-.228-1.458-.617-1.706-.865-.579-.579-2.289-.587-2.51-.013-.092.242-.086.869.014 1.394.14.732.072.911-.293.771-1.399-.537-5.728-1.297-6.857-1.205l-1.303.107.12 2.47.12 2.47-1.182-.222c-.695-.13-1.269-.08-1.395.123-.479.775-1.861.264-3.978-1.47-2.004-1.642-2.518-1.886-5.375-2.546-3.511-.811-4.768-.658-5.431.66-.366.727-.395.732-.592.111-.298-.938-1.821-2.288-2.153-1.91-.152.173-.541 1.035-.866 1.916-.917 2.491-1.907 3.484-3.31 3.32-1.155-.135-1.164-.125-1.531 1.587-.204.947-.37 2.025-.37 2.395 0 .509-.555.924-2.259 1.691-1.243.559-2.74 1.378-3.328 1.82-.645.486-1.15.669-1.277.464-.399-.644-2.736-1.628-4.913-2.068-2.148-.433-2.212-.479-4.208-2.949-1.114-1.38-2.882-3.382-3.93-4.449-1.899-1.935-1.907-1.939-3.464-1.72-.858.121-1.838.486-2.178.811-.598.572-.575.626.73 1.674l1.349 1.084-.188 2.25c-.118 1.401-.032 2.725.227 3.51.487 1.475.24 1.857-1.731 2.677-1.667.693-2.116.206-2.404-2.603-.191-1.859-.121-2.342.488-3.374.39-.661.628-1.416.528-1.677-.1-.261-.898-.676-1.775-.924-1.391-.393-1.859-.787-3.697-3.12-1.157-1.469-2.192-2.896-2.301-3.172-.495-1.262-.817-1.486-2.655-1.853-1.578-.315-2.184-.636-3.109-1.645-.912-.994-1.111-1.445-.964-2.181.14-.701-.012-1.114-.624-1.689-.68-.638-1.387-.812-4.386-1.077-2.504-.221-3.816-.207-4.378.05-1.156.526-3.179.448-4.043-.157-.711-.498-.775-.469-1.446.67-1.415 2.396-2.47 1.447-4.282-3.847-.718-2.1-1.529-3.96-1.801-4.131-.35-.22-1.026-.014-2.295.698-.99.556-2.366 1.115-3.06 1.243-2.557.471-4.553 3.672-3.061 4.909.48.399.473.46-.084.646-.9.3-8.587-.174-9.3-.574-.524-.292-.403-.405.857-.804 1.194-.377 1.486-.629 1.57-1.352.079-.682-.162-1.09-1.032-1.754-1.435-1.094-2.687-1.342-4.594-.91-1.46.332-1.543.306-2.692-.813-1.919-1.87-2.33-1.398-1.276 1.46.308.835.052 2.403-.393 2.403-.149 0-.51.092-.8.204-.353.135-.53.016-.53-.357 0-.308-.16-.86-.358-1.229-.545-1.018-1.154-.278-1.834 2.232-.431 1.593-.737 2.162-1.16 2.162-.98 0-2.304 1.313-2.718 2.695-.304 1.013-.566 1.32-1.127 1.32-1.234 0-4.732 1.959-5.997 3.358-1.32 1.461-1.952 1.596-3.664.779-1.386-.66-2.452-.448-3.907.775-1.017.856-1.057.981-.885 2.76.099 1.025.228 2.141.287 2.479.083.481-.337.777-1.928 1.359-2.47.904-4.265 1.98-5.127 3.076-.67.851-1.661 1.277-3.802 1.632-1.225.203-1.255.243-1.255 1.655 0 1.871 1.738 7.739 3.18 10.736l1.127 2.342-.836.878c-1.283 1.345-6.01 3.436-7.814 3.455l-1.515.017-1.506-2.877c-.829-1.582-1.883-3.339-2.344-3.904-.46-.566-1.345-1.932-1.966-3.037-1.53-2.723-2.715-4.093-4.31-4.987l-1.342-.752-.96 1.833c-.93 1.775-2.1 2.682-3.155 2.449-.288-.064-.64.451-.938 1.368-.416 1.28-.413 1.769.019 3.779l.496 2.31-2.877 2.047c-1.581 1.126-3.003 2.157-3.159 2.292-.155.135-.646 2.852-1.09 6.038-.763 5.487-.775 5.809-.219 6.11.323.174 1.153.902 1.843 1.617 1.037 1.075 1.255 1.541 1.255 2.679 0 1.928-1.249 3.885-3.76 5.892l-2.098 1.677-1.84 5.096C.828 168.784 0 171.232 0 171.421c0 .19 2.26.978 5.021 1.751l5.022 1.407.213 4.511c.27 5.701.853 7.786 2.535 9.052 1.628 1.225 2.244 1.08 2.38-.559l.106-1.294 1.414.194c.779.107 1.86.431 2.405.721.787.42 1.638.488 4.17.333l3.18-.194 4.135 5.622c2.275 3.092 4.892 6.977 5.814 8.633 1.894 3.4 5.05 10.735 4.86 11.3-.071.216-1.096.399-2.445.436-2.08.058-2.418-.025-3.245-.798-1.193-1.114-1.648-.693-1.847 1.712-.137 1.648-.073 1.859.77 2.521.505.398 1.202.723 1.548.723.346 0 2.606.99 5.024 2.201 3.018 1.512 4.47 2.08 4.633 1.815.132-.213.45-.358.706-.321 1.864.261 2.061-.403.839-2.817-.44-.868-.628-1.505-.419-1.417 2.311.977 2.933 1.004 4.414.196l1.466-.801.833.783.835.784 1.772-1.462c.975-.803 2.96-2.495 4.41-3.759 2.473-2.157 4.746-3.532 5.9-3.568.275-.009 1.323-.54 2.327-1.179 1.098-.699 2.249-1.162 2.888-1.162.584 0 1.245-.221 1.469-.49.661-.796 3.924-1.853 5.724-1.853 2.31 0 3.473.595 6.042 3.087 1.219 1.182 2.725 2.34 3.348 2.573a66.04 66.04 0 012.697 1.107c1.738.761 2.619.627 2.619-.399 0-.444.22-.679.635-.679.59 0 2.27-1.611 2.953-2.832.269-.48.405-.475 1.45.046 1.441.719 5.892.856 5.753.178-.12-.586.717-.115 2.432 1.369.897.777 1.6 1.826 2.132 3.182l.794 2.023-1.438 1.704-1.438 1.705.559 1.171c1.002 2.102 1.386 5.568.916 8.281-.49 2.831-2.702 7.96-4.891 11.342-1.428 2.208-1.511 2.45-1.098 3.228.471.888 3.583 3.037 6.594 4.554 1.788.901 1.793.908 1.04 1.435-1.07.749-2.193.621-7.69-.88l-4.853-1.326-4.131.607c-3.697.543-4.263.555-5.386.114-1.222-.48-1.304-.464-3.037.603l-1.782 1.095-1.325-.725c-.73-.4-1.462-.643-1.627-.54-.711.439-2.295 4.207-2.295 5.459 0 1.301-.047 1.351-2.544 2.77l-2.544 1.445.165 1.472c.095.845.388 1.597.687 1.765 1.51.845 3.462 2.594 3.93 3.524 1.075 2.131 1.665 2.814 2.266 2.623.63-.2 2.866 1.239 2.498 1.606-.12.12-.701.219-1.292.219-.59 0-1.733.232-2.538.517-1.89.666-2.41.503-4.712-1.478-2.373-2.041-4.242-2.565-8.09-2.269-2.414.187-2.806.315-3.702 1.209l-1 1.002.414 2.415c.47 2.742 1.736 4.836 2.687 4.445 1.567-.645 3.364-.552 5.152.267l1.822.833.401 2.468c.221 1.358.788 3.373 1.26 4.477a309.314 309.314 0 011.675 4.015c1.748 4.293 2.279 5.248 3.172 5.71 1.857.96 2.41 5.556 1.085 9.008-.22.573-.05.597 2.753.385l2.988-.225 2.177 4.149 2.176 4.15 2.34-.93c2.492-.99 2.842-.989 2.842.004 0 .908.494 1.095 2.746 1.044 1.87-.042 2.08.033 3.18 1.131.646.647 1.536 1.267 1.976 1.377.634.159.801.423.801 1.26 0 1.361-1.58 5.453-3.69 9.561-1.787 3.476-2.392 6-1.652 6.891.24.29.525 1.507.63 2.704l.193 2.176 3.515-3.07c6.607-5.77 7.306-6.194 12.067-7.326 4.783-1.137 9.657-2.029 11.084-2.029.534 0 1.864.451 2.956 1.002 1.982 1 9.395 6.389 10.419 7.574.298.344.634 1.343.748 2.22.252 1.942.696 2.831 2.785 5.582.89 1.171 2.371 3.646 3.291 5.5 1.616 3.254 1.72 3.38 3.013 3.651 1.817.382 3.941.061 6.082-.919l1.785-.816v-89.61l18.829-6.226c10.357-3.425 19.842-6.539 21.08-6.92l2.25-.694 20.765 16.714 20.765 16.714 4.402 5.631c5.731 7.331 9.233 11.413 10.001 11.657.34.108 4.506-.587 9.258-1.543l8.641-1.739 7.03.401c9.031.515 13.542.958 14.443 1.417.613.312 1.059.142 3.013-1.145 1.262-.831 2.854-1.923 3.538-2.426l1.244-.915 2.412 2.639c1.327 1.451 3.811 4.029 5.521 5.729l3.109 3.09 2.062 4.94c1.134 2.717 2.11 4.994 2.168 5.059.059.065 1.132-.714 2.385-1.731 1.253-1.018 2.296-1.824 2.316-1.792.021.032-.369 5.479-.865 12.104-.497 6.625-.843 12.159-.769 12.297.074.138 2.002.251 4.284.251h4.149l.186 1.087c.102.598.402 3.723.666 6.943.264 3.221.809 7.396 1.213 9.279l.733 3.422 1.211.241c2.151.427 9.507.316 10.334-.156 1.028-.587 4.544-.878 7.187-.595 2.119.227 2.22.282 3.746 2.048l1.567 1.815-.853 1.455c-1.033 1.763-1.1 3.502-.179 4.672.371.472 1.601 1.553 2.732 2.403 1.899 1.428 2.189 1.539 3.755 1.447 2.317-.135 2.617-.942 1.565-4.213-.868-2.698-.722-3.263 1.145-4.416.735-.454 1.176-.987 1.176-1.423 0-1.85 2.661-4.602 4.45-4.602.689 0 .906-.727.906-3.034 0-1.949.017-1.983 1.191-2.474.655-.273 2.579-1.54 4.276-2.815 3.801-2.856 5.061-3.588 6.658-3.867.685-.119 1.664-.562 2.176-.984.511-.422 1.587-1.131 2.39-1.575 1.105-.612 1.689-1.262 2.406-2.683 1.902-3.765 3.275-4.661 5.34-3.481 1.181.675 1.339.624 1.339-.436 0-1.49 2.484-3.575 4.854-4.074l1.004-.212-1.206-.797-1.206-.797.967-.814c1.315-1.106 1.898-2.36 1.701-3.662-.201-1.322.639-2.759 1.611-2.759.499 0 .863-.438 1.362-1.64.58-1.394.898-1.722 2.131-2.192.798-.305 2.177-.549 3.066-.544.889.005 1.918-.004 2.286-.021.368-.017 2.628.125 5.021.315 4.917.391 8.739 1.159 10.712 2.153.737.37 1.565.777 1.841.902.276.126.804.856 1.172 1.623l.669 1.395 3.372-.204 3.371-.205.729.927c.401.51.73 1.189.73 1.509 0 .653 1.926 1.216 2.431.712.173-.173.077-1.038-.23-2.073-.722-2.429-.667-3.475.332-6.363.473-1.367.963-3.451 1.088-4.633l.228-2.148 4.017-1.662c6.475-2.68 9.389-2.579 12.726.442 3.611 3.268 9.196 5.768 14.122 6.322l3.28.369.67-.893c.368-.49.985-1.27 1.371-1.732l.702-.841 5.874.7 5.873.7 3.666-.926c3.656-.925 3.668-.926 4.894-.298.936.48 2.163.662 5.157.763 4.142.14 6.785.527 9.734 1.422 1.578.479 2.212.493 5.402.113l3.613-.429 3.637 1.407c3.081 1.192 3.875 1.376 5.196 1.203l1.56-.204.231 1.367c.172 1.019.435 1.444 1.034 1.672.442.168.804.422.805.565 0 .142.527.851 1.171 1.575.644.723 1.172 1.554 1.172 1.847 0 .449.388.511 2.522.403 1.387-.069 3.333-.025 4.324.098l1.803.225 1.15 2.423c1.111 2.338 3.006 4.897 3.625 4.897.495 0 .362-1.232-.765-7.117l-1.075-5.612.899-1.833c.724-1.476 1.059-1.833 1.718-1.833 1.113 0 2.428-.532 3.533-1.428l.921-.747-1.695-.837c-.932-.46-1.75-1.015-1.817-1.234-.067-.219 1.045-1.08 2.47-1.914l2.592-1.517 1.111.687 1.112.687v-1.213c0-2.935-1.473-8.099-5.676-19.902l-1.721-4.833.234-6.139.234-6.138.972-.693c1.382-.983 1.141-1.938-.725-2.878-1.699-.856-3.475-.951-4.7-.251-1.339.765-1.887.595-3.186-.989l-1.222-1.492 1.233-1.101c1.673-1.496 3.391-2.254 5.132-2.265.886-.005 1.808-.26 2.357-.651 1.358-.967 4.627-1.966 8.3-2.537 3.787-.59 7.349-1.741 10.549-3.411 2.675-1.395 2.822-1.34 5.195 1.953.843 1.17 1.578 2.183 1.634 2.25.055.066.496-.189.979-.569 1.752-1.378 5.355-1.236 7.292.287l.859.675.82-1.094c2.917-3.895 2.451-6.48-1.322-7.324-3.278-.733-3.499-1.63-1.475-5.978 1.016-2.182 1.569-4.104 2.361-8.203.745-3.854 1.494-6.525 2.673-9.536 4.642-11.852 5.021-13.025 5.021-15.536 0-2.511.555-3.871 1.578-3.871.295 0 3.659 1.488 7.476 3.306l6.941 3.307 1.794-.476c2.468-.654 8.958-.291 9.228.516.54 1.61 1.777 4.054 2.052 4.054.175 0 1.213-.875 2.307-1.945 1.904-1.862 6.869-4.747 8.17-4.747.771 0 4.225-3.762 4.979-5.423l.652-1.436-.993-.837c-1.152-.971-2.086-3.448-2.863-7.592l-.528-2.815 1.379-5.372c.758-2.955 1.484-6.222 1.613-7.26.221-1.776.312-1.927 1.533-2.522.998-.488 2.133-.647 4.914-.691l3.616-.058 3.364-2.245c1.85-1.235 3.527-2.55 3.726-2.922.683-1.275.993-4.338.603-5.964-.695-2.904-.363-3.738 1.895-4.765 1.978-.899 4.727-.815 6.645.204.932.496 1.556.671 1.556.438 0-.214-.61-1.415-1.355-2.669-1.448-2.436-3.059-3.615-4.94-3.615-1.226 0-1.928-.783-2.899-3.233-.649-1.638-.994-2.062-2.138-2.623-1.657-.812-1.739-1.35-.301-1.951.599-.25 1.294-.702 1.544-1.004.652-.786.205-2.187-.822-2.577-1.678-.638-2.108-.423-2.948 1.474-.889 2.01-1.176 2.264-2.865 2.539-1.108.18-1.212.306-1.658 2.027-.262 1.009-.508 1.879-.547 1.934-.097.135-8.097-2.524-9.408-3.127-1.36-.626-3.671-.619-5.473.016-.782.276-1.479.502-1.548.502-.069 0-.126-.508-.126-1.129 0-1.717-.84-3.744-2.542-6.127-1.427-1.999-1.5-2.199-1.005-2.746 1.179-1.302.724-1.942-2.562-3.6-2.707-1.366-3.427-1.582-5.726-1.721l-2.631-.159-.972-1.532c-1.253-1.975-1.63-3.382-1.632-6.099-.002-2.444-.455-3.131-2.631-3.991-1.006-.397-1.105-.551-.949-1.476.095-.568.267-1.267.38-1.553.159-.4-.626-.92-3.403-2.252-3.881-1.864-7.387-2.923-8.636-2.609-.427.107-1.092.706-1.479 1.331-.873 1.413-1.857 1.675-4.412 1.172-2.772-.545-3.399-.201-4.339 2.375-.585 1.602-.86 1.994-1.28 1.818-1.823-.764-6.728-.487-6.728.379 0 .601.214.629-2.616-.334-2.976-1.012-5.418-1.415-5.418-.896 0 .402-1.694.493-2.941.159-.715-.191-.752-.328-.56-2.087.269-2.465-.199-3.14-2.158-3.113-.784.01-1.865.116-2.402.234-1.173.258-1.238-.145-.484-3.039.617-2.367.261-3.325-1.131-3.047-.684.137-1.435-.149-3.014-1.147-2.351-1.486-2.972-1.477-4.062.053-.538.756-.962.984-1.83.984-1.448 0-1.666.392-.998 1.799.47.991.483 1.364.101 2.91-.435 1.757-.457 1.78-2.568 2.636-1.171.474-2.451 1.246-2.845 1.715l-.717.852-6.311-11.062a4798.747 4798.747 0 01-11.677-20.6c-5.795-10.298-9.624-16.422-16.321-26.099l-4.284-6.19-9.827-6.67-9.826-6.671-.783-2.318c-.462-1.37-.659-2.44-.481-2.618.178-.178 1.093-.028 2.239.366 2.348.807 2.859.609 3.884-1.507.595-1.228.713-1.951.603-3.685-.188-2.943-.608-3.282-2.199-1.775-2.212 2.096-2.686 2.293-5.514 2.293h-2.603v1.164c0 .998-.132 1.194-.921 1.369-2.151.476-3.402.96-5.718 2.211-2.416 1.305-2.48 1.32-4.087.908-1.25-.32-1.832-.327-2.483-.031-.973.443-1.158 1.738-.344 2.412.385.32.415.53.126.878-.209.252-.582.458-.829.458s-1.424.912-2.618 2.028c-2.128 1.99-2.184 2.017-2.992 1.488-.589-.386-1.42-.51-2.928-.438-2.098.1-2.106.104-2.401 1.271-.394 1.564-1.056 2.175-2.351 2.175h-1.075l-.097 2.928c-.058 1.756-.237 2.928-.447 2.928-.193 0-1.31-.92-2.481-2.045l-2.13-2.044-2.779-.32c-2.503-.289-2.933-.252-4.343.376-1.063.472-1.958 1.231-2.79 2.364-1.337 1.821-1.673 2-1.928 1.028-.092-.352-.787-1.032-1.545-1.51-1.498-.945-1.621-1.32-.908-2.757.259-.521.749-1.685 1.088-2.586.34-.902 1.018-1.937 1.507-2.301.839-.624.976-.633 2.396-.149l1.506.513.221-1.224c.122-.673.578-1.77 1.014-2.438l.792-1.214-1.342-.604c-1.524-.687-1.947-.412-1.956 1.276l-.005.92-2.595-.003c-1.427-.001-3.358-.095-4.292-.207-1.63-.196-1.716-.259-2.176-1.586-.561-1.623-1.715-2.17-4.641-2.2-1.421-.015-1.988.139-2.59.705l-.772.724 1.359.608c1.173.525 1.344.735 1.252 1.535-.089.775-.266.926-1.082.926-.536 0-1.038.188-1.116.418-.077.23-.63.418-1.229.418-1.036 0-1.092-.064-1.141-1.317-.031-.783.151-1.52.447-1.817.665-.664.642-.798-.369-2.123-.613-.803-.809-1.375-.667-1.941.167-.665-.154-1.148-1.862-2.809-1.606-1.56-2.188-1.94-2.623-1.706-.837.447-.383 3.629.612 4.29.88.583.966 1.735.13 1.735-.325 0-1.163-.388-1.86-.861-1.722-1.17-3.43-1.85-4.048-1.613-.282.108-.611.747-.732 1.42-.314 1.745-.686 2.058-2.445 2.058-1.372 0-1.631-.12-2.142-.983-.941-1.593-2.425-1.704-4.205-.314-.436.34-.916.542-1.066.45-.151-.093-.714-.982-1.253-1.976l-.978-1.806 1.542-.288c1.684-.314 1.613-.118 1.159-3.168-.228-1.53.722-4.922 1.456-5.204.457-.175.431-.25-.166-.47-.944-.349-2.935-3.11-3.573-4.955-.282-.815-.513-2.336-.513-3.38 0-1.553-.172-2.134-.948-3.202-.522-.718-1.2-1.512-1.507-1.764-.307-.253-.558-.812-.558-1.243 0-1.132-.891-1.457-3.241-1.18-1.781.21-2.344.47-4.302 1.98-1.703 1.314-2.531 1.738-3.394 1.738-1.472 0-3.321-.963-4.796-2.5-1.887-1.966-4.997-3.078-5.95-2.126-.301.301-.587.183-1.222-.502-1.021-1.1-1.385-1.115-2.294-.095l-.712.799-.904-.967c-.767-.82-1.159-.966-2.61-.966-.968 0-1.706.152-1.706.351z" fill="#27333D"/></svg>